<?xml version="1.0" encoding="utf-8"?>
<!-- Generator: Adobe Illustrator 19.0.0, SVG Export Plug-In . SVG Version: 6.00 Build 0)  -->
<svg version="1.1" id="Capa_1" xmlns="http://www.w3.org/2000/svg" xmlns:xlink="http://www.w3.org/1999/xlink" x="0px" y="0px"
	 viewBox="83 -17.4 230.9 98.4" style="enable-background:new 83 -17.4 230.9 98.4;" xml:space="preserve">
<style type="text/css">
	.st0{fill:#FFFFFF;}
</style>
<g id="HPTXT_VIP">
	<path class="st0" d="M202.8,54.7L184.9,2.5h15l11,35.7h0.2l11-35.7h14.2l-17.7,52.2H202.8z M240.4-5.6v-11.8h14.3v11.8H240.4z
		 M254.8,2.5v52.2h-14.3V2.5H254.8z M274.4,2.5v6.7h0.2c1.8-2.8,4-4.9,6.7-6.2c2.7-1.3,5.7-1.9,8.9-1.9c4.1,0,7.6,0.8,10.6,2.3
		s5.4,3.6,7.4,6.2s3.4,5.5,4.3,8.9c0.9,3.4,1.4,7,1.4,10.7c0,3.5-0.5,6.9-1.4,10.1c-0.9,3.2-2.4,6.1-4.3,8.6s-4.3,4.5-7.2,6
		c-2.9,1.5-6.2,2.2-10,2.2c-3.2,0-6.2-0.7-8.9-2c-2.7-1.3-5-3.2-6.7-5.8h-0.2V73h-14.3V2.5H274.4z M293.1,43.9
		c1.6-0.9,2.9-2.2,3.8-3.7c1-1.5,1.7-3.3,2.1-5.3c0.4-2,0.6-4.1,0.6-6.2c0-2.1-0.2-4.1-0.7-6.2c-0.4-2-1.2-3.8-2.2-5.4
		c-1-1.6-2.3-2.9-3.9-3.8c-1.6-1-3.5-1.5-5.8-1.5c-2.4,0-4.3,0.5-5.9,1.5c-1.6,1-2.9,2.2-3.8,3.8c-1,1.5-1.7,3.3-2.1,5.4
		c-0.4,2-0.6,4.1-0.6,6.3c0,2.1,0.2,4.1,0.7,6.2c0.4,2,1.1,3.8,2.1,5.3s2.3,2.7,3.9,3.7c1.6,0.9,3.6,1.4,5.9,1.4
		C289.5,45.3,291.5,44.9,293.1,43.9z"/>
	<path class="st0" d="M176.4,24c0-18.6-15.1-33.7-33.7-33.7h-26C98.1-9.7,83,5.4,83,24s15.1,33.7,33.7,33.7h13h23.4L176.4,81
		C176.4,81,176.4,24.1,176.4,24z M164.2,51.5l-6-6l0,0l0,0h-41.5c-11.9,0-21.5-9.6-21.5-21.5s9.6-21.5,21.5-21.5h26
		c11.9,0,21.5,9.6,21.5,21.5l0,0l0,0V51.5z"/>
</g>
</svg>
