<?xml version="1.0" encoding="utf-8"?>
<!-- Generator: Adobe Illustrator 19.0.0, SVG Export Plug-In . SVG Version: 6.00 Build 0)  -->
<svg version="1.1" id="Capa_1" xmlns="http://www.w3.org/2000/svg" xmlns:xlink="http://www.w3.org/1999/xlink" x="0px" y="0px"
	 viewBox="-364 231.6 230.9 98.4" style="enable-background:new -364 231.6 230.9 98.4;" xml:space="preserve">
<style type="text/css">
	.st0{fill:#020202;}
</style>
<g id="HPTXT_VIP">
	<path class="st0" d="M-244.2,303.7l-17.9-52.2h15l11,35.7h0.2l11-35.7h14.2l-17.7,52.2H-244.2z M-206.6,243.4v-11.8h14.3v11.8
		H-206.6z M-192.2,251.5v52.2h-14.3v-52.2H-192.2z M-172.6,251.5v6.7h0.2c1.8-2.8,4-4.9,6.7-6.2c2.7-1.3,5.7-1.9,8.9-1.9
		c4.1,0,7.6,0.8,10.6,2.3s5.4,3.6,7.4,6.2s3.4,5.5,4.3,8.9c0.9,3.4,1.4,7,1.4,10.7c0,3.5-0.5,6.9-1.4,10.1c-0.9,3.2-2.4,6.1-4.3,8.6
		c-1.9,2.5-4.3,4.5-7.2,6s-6.2,2.2-10,2.2c-3.2,0-6.2-0.7-8.9-2c-2.7-1.3-5-3.2-6.7-5.8h-0.2V322h-14.3v-70.5H-172.6z M-153.9,292.9
		c1.6-0.9,2.9-2.2,3.8-3.7c1-1.5,1.7-3.3,2.1-5.3c0.4-2,0.6-4.1,0.6-6.2s-0.2-4.1-0.7-6.2c-0.4-2-1.2-3.8-2.2-5.4s-2.3-2.9-3.9-3.8
		c-1.6-1-3.5-1.5-5.8-1.5c-2.4,0-4.3,0.5-5.9,1.5c-1.6,1-2.9,2.2-3.8,3.8c-1,1.5-1.7,3.3-2.1,5.4c-0.4,2-0.6,4.1-0.6,6.3
		c0,2.1,0.2,4.1,0.7,6.2c0.4,2,1.1,3.8,2.1,5.3s2.3,2.7,3.9,3.7c1.6,0.9,3.6,1.4,5.9,1.4C-157.5,294.3-155.5,293.9-153.9,292.9z"/>
	<path class="st0" d="M-270.6,273c0-18.6-15.1-33.7-33.7-33.7h-26c-18.6,0-33.7,15.1-33.7,33.7s15.1,33.7,33.7,33.7h13h23.4
		l23.3,23.3c0,0,0-41.1,0-56.8C-270.6,273.1-270.6,273.1-270.6,273z M-282.8,294.5v6l-6-6l0,0l0,0h-41.5c-11.9,0-21.5-9.6-21.5-21.5
		c0-11.9,9.6-21.5,21.5-21.5h26c11.9,0,21.5,9.6,21.5,21.5l0,0l0,0v8.8V294.5z"/>
</g>
</svg>
